# Wavefront OBJ file automatically generated by Tiled2Unity

# Vertices (Count = 144)
v 0 -32 0
v -32 -32 0
v -32 0 0
v 0 0 0
v -64 -32 0
v -64 0 0
v -96 -32 0
v -96 0 0
v -128 -32 0
v -128 0 0
v -160 -32 0
v -160 0 0
v -192 -32 0
v -192 0 0
v -224 -32 0
v -224 0 0
v -256 -32 0
v -256 0 0
v -288 -32 0
v -288 0 0
v -320 -32 0
v -320 0 0
v -352 -32 0
v -352 0 0
v 0 -64 0
v -32 -64 0
v -64 -64 0
v -96 -64 0
v -128 -64 0
v -160 -64 0
v -192 -64 0
v -224 -64 0
v -256 -64 0
v -288 -64 0
v -320 -64 0
v -352 -64 0
v 0 -96 0
v -32 -96 0
v -64 -96 0
v -96 -96 0
v -128 -96 0
v -160 -96 0
v -192 -96 0
v -224 -96 0
v -256 -96 0
v -288 -96 0
v -320 -96 0
v -352 -96 0
v 0 -128 0
v -32 -128 0
v -64 -128 0
v -96 -128 0
v -128 -128 0
v -160 -128 0
v -192 -128 0
v -224 -128 0
v -256 -128 0
v -288 -128 0
v -320 -128 0
v -352 -128 0
v 0 -160 0
v -32 -160 0
v -64 -160 0
v -96 -160 0
v -128 -160 0
v -160 -160 0
v -192 -160 0
v -224 -160 0
v -256 -160 0
v -288 -160 0
v -320 -160 0
v -352 -160 0
v 0 -192 0
v -32 -192 0
v -64 -192 0
v -96 -192 0
v -128 -192 0
v -160 -192 0
v -192 -192 0
v -224 -192 0
v -256 -192 0
v -288 -192 0
v -320 -192 0
v -352 -192 0
v 0 -224 0
v -32 -224 0
v -64 -224 0
v -96 -224 0
v -128 -224 0
v -160 -224 0
v -192 -224 0
v -224 -224 0
v -256 -224 0
v -288 -224 0
v -320 -224 0
v -352 -224 0
v 0 -256 0
v -32 -256 0
v -64 -256 0
v -96 -256 0
v -128 -256 0
v -160 -256 0
v -192 -256 0
v -224 -256 0
v -256 -256 0
v -288 -256 0
v -320 -256 0
v -352 -256 0
v 0 -288 0
v -32 -288 0
v -64 -288 0
v -96 -288 0
v -128 -288 0
v -160 -288 0
v -192 -288 0
v -224 -288 0
v -256 -288 0
v -288 -288 0
v -320 -288 0
v -352 -288 0
v 0 -320 0
v -32 -320 0
v -64 -320 0
v -96 -320 0
v -128 -320 0
v -160 -320 0
v -192 -320 0
v -224 -320 0
v -256 -320 0
v -288 -320 0
v -320 -320 0
v -352 -320 0
v 0 -352 0
v -32 -352 0
v -64 -352 0
v -96 -352 0
v -128 -352 0
v -160 -352 0
v -192 -352 0
v -224 -352 0
v -256 -352 0
v -288 -352 0
v -320 -352 0
v -352 -352 0

# Texture cooridinates (Count = 6)
vt 0.0001220703 0.0001220703
vt 0.9998779 0.0001220703
vt 0.9998779 0.9998779
vt 0.0001220703 0.9998779
vt 0.5001221 0.0001220703
vt 0.5001221 0.9998779

# Normal
vn 0 0 -1

# Groups (Count = 3)

g mesh_0001
f 1/1/1 2/2/1 3/3/1 4/4/1
f 2/1/1 5/2/1 6/3/1 3/4/1
f 5/1/1 7/2/1 8/3/1 6/4/1
f 7/1/1 9/2/1 10/3/1 8/4/1
f 9/1/1 11/2/1 12/3/1 10/4/1
f 11/1/1 13/2/1 14/3/1 12/4/1
f 13/1/1 15/2/1 16/3/1 14/4/1
f 15/1/1 17/2/1 18/3/1 16/4/1
f 17/1/1 19/2/1 20/3/1 18/4/1
f 19/1/1 21/2/1 22/3/1 20/4/1
f 21/1/1 23/2/1 24/3/1 22/4/1
f 25/1/1 26/2/1 2/3/1 1/4/1
f 26/1/1 27/2/1 5/3/1 2/4/1
f 27/1/1 28/2/1 7/3/1 5/4/1
f 28/1/1 29/2/1 9/3/1 7/4/1
f 29/1/1 30/2/1 11/3/1 9/4/1
f 30/1/1 31/2/1 13/3/1 11/4/1
f 31/1/1 32/2/1 15/3/1 13/4/1
f 32/1/1 33/2/1 17/3/1 15/4/1
f 33/1/1 34/2/1 19/3/1 17/4/1
f 34/1/1 35/2/1 21/3/1 19/4/1
f 35/1/1 36/2/1 23/3/1 21/4/1
f 37/1/1 38/2/1 26/3/1 25/4/1
f 38/1/1 39/2/1 27/3/1 26/4/1
f 39/1/1 40/2/1 28/3/1 27/4/1
f 40/1/1 41/2/1 29/3/1 28/4/1
f 41/1/1 42/2/1 30/3/1 29/4/1
f 42/1/1 43/2/1 31/3/1 30/4/1
f 43/1/1 44/2/1 32/3/1 31/4/1
f 44/1/1 45/2/1 33/3/1 32/4/1
f 45/1/1 46/2/1 34/3/1 33/4/1
f 46/1/1 47/2/1 35/3/1 34/4/1
f 47/1/1 48/2/1 36/3/1 35/4/1
f 49/1/1 50/2/1 38/3/1 37/4/1
f 50/1/1 51/2/1 39/3/1 38/4/1
f 51/1/1 52/2/1 40/3/1 39/4/1
f 52/1/1 53/2/1 41/3/1 40/4/1
f 53/1/1 54/2/1 42/3/1 41/4/1
f 54/1/1 55/2/1 43/3/1 42/4/1
f 55/1/1 56/2/1 44/3/1 43/4/1
f 56/1/1 57/2/1 45/3/1 44/4/1
f 57/1/1 58/2/1 46/3/1 45/4/1
f 58/1/1 59/2/1 47/3/1 46/4/1
f 59/1/1 60/2/1 48/3/1 47/4/1
f 61/1/1 62/2/1 50/3/1 49/4/1
f 62/1/1 63/2/1 51/3/1 50/4/1
f 63/1/1 64/2/1 52/3/1 51/4/1
f 64/1/1 65/2/1 53/3/1 52/4/1
f 65/1/1 66/2/1 54/3/1 53/4/1
f 66/1/1 67/2/1 55/3/1 54/4/1
f 67/1/1 68/2/1 56/3/1 55/4/1
f 68/1/1 69/2/1 57/3/1 56/4/1
f 69/1/1 70/2/1 58/3/1 57/4/1
f 70/1/1 71/2/1 59/3/1 58/4/1
f 71/1/1 72/2/1 60/3/1 59/4/1
f 73/1/1 74/2/1 62/3/1 61/4/1
f 74/1/1 75/2/1 63/3/1 62/4/1
f 75/1/1 76/2/1 64/3/1 63/4/1
f 76/1/1 77/2/1 65/3/1 64/4/1
f 77/1/1 78/2/1 66/3/1 65/4/1
f 78/1/1 79/2/1 67/3/1 66/4/1
f 79/1/1 80/2/1 68/3/1 67/4/1
f 80/1/1 81/2/1 69/3/1 68/4/1
f 81/1/1 82/2/1 70/3/1 69/4/1
f 82/1/1 83/2/1 71/3/1 70/4/1
f 83/1/1 84/2/1 72/3/1 71/4/1
f 85/1/1 86/2/1 74/3/1 73/4/1
f 86/1/1 87/2/1 75/3/1 74/4/1
f 87/1/1 88/2/1 76/3/1 75/4/1
f 88/1/1 89/2/1 77/3/1 76/4/1
f 89/1/1 90/2/1 78/3/1 77/4/1
f 90/1/1 91/2/1 79/3/1 78/4/1
f 91/1/1 92/2/1 80/3/1 79/4/1
f 92/1/1 93/2/1 81/3/1 80/4/1
f 93/1/1 94/2/1 82/3/1 81/4/1
f 94/1/1 95/2/1 83/3/1 82/4/1
f 95/1/1 96/2/1 84/3/1 83/4/1
f 97/1/1 98/2/1 86/3/1 85/4/1
f 98/1/1 99/2/1 87/3/1 86/4/1
f 99/1/1 100/2/1 88/3/1 87/4/1
f 100/1/1 101/2/1 89/3/1 88/4/1
f 101/1/1 102/2/1 90/3/1 89/4/1
f 102/1/1 103/2/1 91/3/1 90/4/1
f 103/1/1 104/2/1 92/3/1 91/4/1
f 104/1/1 105/2/1 93/3/1 92/4/1
f 105/1/1 106/2/1 94/3/1 93/4/1
f 106/1/1 107/2/1 95/3/1 94/4/1
f 107/1/1 108/2/1 96/3/1 95/4/1
f 109/1/1 110/2/1 98/3/1 97/4/1
f 110/1/1 111/2/1 99/3/1 98/4/1
f 111/1/1 112/2/1 100/3/1 99/4/1
f 112/1/1 113/2/1 101/3/1 100/4/1
f 113/1/1 114/2/1 102/3/1 101/4/1
f 114/1/1 115/2/1 103/3/1 102/4/1
f 115/1/1 116/2/1 104/3/1 103/4/1
f 116/1/1 117/2/1 105/3/1 104/4/1
f 117/1/1 118/2/1 106/3/1 105/4/1
f 118/1/1 119/2/1 107/3/1 106/4/1
f 119/1/1 120/2/1 108/3/1 107/4/1
f 121/1/1 122/2/1 110/3/1 109/4/1
f 122/1/1 123/2/1 111/3/1 110/4/1
f 123/1/1 124/2/1 112/3/1 111/4/1
f 124/1/1 125/2/1 113/3/1 112/4/1
f 125/1/1 126/2/1 114/3/1 113/4/1
f 126/1/1 127/2/1 115/3/1 114/4/1
f 127/1/1 128/2/1 116/3/1 115/4/1
f 128/1/1 129/2/1 117/3/1 116/4/1
f 129/1/1 130/2/1 118/3/1 117/4/1
f 130/1/1 131/2/1 119/3/1 118/4/1
f 131/1/1 132/2/1 120/3/1 119/4/1
f 133/1/1 134/2/1 122/3/1 121/4/1
f 134/1/1 135/2/1 123/3/1 122/4/1
f 135/1/1 136/2/1 124/3/1 123/4/1
f 136/1/1 137/2/1 125/3/1 124/4/1
f 137/1/1 138/2/1 126/3/1 125/4/1
f 138/1/1 139/2/1 127/3/1 126/4/1
f 139/1/1 140/2/1 128/3/1 127/4/1
f 140/1/1 141/2/1 129/3/1 128/4/1
f 141/1/1 142/2/1 130/3/1 129/4/1
f 142/1/1 143/2/1 131/3/1 130/4/1
f 143/1/1 144/2/1 132/3/1 131/4/1

g mesh_0002
f 25/5/1 26/2/1 2/3/1 1/6/1
f 26/5/1 27/2/1 5/3/1 2/6/1
f 27/5/1 28/2/1 7/3/1 5/6/1
f 28/5/1 29/2/1 9/3/1 7/6/1
f 29/5/1 30/2/1 11/3/1 9/6/1
f 30/5/1 31/2/1 13/3/1 11/6/1
f 31/5/1 32/2/1 15/3/1 13/6/1
f 32/5/1 33/2/1 17/3/1 15/6/1
f 33/5/1 34/2/1 19/3/1 17/6/1
f 34/5/1 35/2/1 21/3/1 19/6/1
f 43/5/1 44/2/1 32/3/1 31/6/1
f 46/5/1 47/2/1 35/3/1 34/6/1
f 53/5/1 54/2/1 42/3/1 41/6/1
f 55/5/1 56/2/1 44/3/1 43/6/1
f 58/5/1 59/2/1 47/3/1 46/6/1
f 65/5/1 66/2/1 54/3/1 53/6/1
f 67/5/1 68/2/1 56/3/1 55/6/1
f 70/5/1 71/2/1 59/3/1 58/6/1
f 77/5/1 78/2/1 66/3/1 65/6/1
f 82/5/1 83/2/1 71/3/1 70/6/1
f 85/5/1 86/2/1 74/3/1 73/6/1
f 86/5/1 87/2/1 75/3/1 74/6/1
f 88/5/1 89/2/1 77/3/1 76/6/1
f 89/5/1 90/2/1 78/3/1 77/6/1
f 91/5/1 92/2/1 80/3/1 79/6/1
f 92/5/1 93/2/1 81/3/1 80/6/1
f 93/5/1 94/2/1 82/3/1 81/6/1
f 94/5/1 95/2/1 83/3/1 82/6/1
f 101/5/1 102/2/1 90/3/1 89/6/1
f 113/5/1 114/2/1 102/3/1 101/6/1
f 115/5/1 116/2/1 104/3/1 103/6/1
f 116/5/1 117/2/1 105/3/1 104/6/1
f 118/5/1 119/2/1 107/3/1 106/6/1
f 119/5/1 120/2/1 108/3/1 107/6/1
f 125/5/1 126/2/1 114/3/1 113/6/1
f 127/5/1 128/2/1 116/3/1 115/6/1
f 137/5/1 138/2/1 126/3/1 125/6/1
f 139/5/1 140/2/1 128/3/1 127/6/1

g mesh_0003
f 1/1/1 2/2/1 3/3/1 4/4/1

